<?xml version="1.0" encoding="UTF-8" standalone="no"?>
<svg
   version="1.0"
   width="142.66667"
   height="142.66667"
   viewBox="0 0 502.13287 503.38294"
   preserveAspectRatio="xMidYMid"
   id="svg68"
   sodipodi:docname="logo-simple.svg"
   inkscape:version="1.2.2 (b0a84865, 2022-12-01)"
   inkscape:export-filename="logo-simple-safari.png"
   inkscape:export-xdpi="96"
   inkscape:export-ydpi="96"
   xmlns:inkscape="http://www.inkscape.org/namespaces/inkscape"
   xmlns:sodipodi="http://sodipodi.sourceforge.net/DTD/sodipodi-0.dtd"
   xmlns="http://www.w3.org/2000/svg"
   xmlns:svg="http://www.w3.org/2000/svg">
  <defs
     id="defs72" />
  <sodipodi:namedview
     id="namedview70"
     pagecolor="#ffffff"
     bordercolor="#000000"
     borderopacity="0.25"
     inkscape:showpageshadow="2"
     inkscape:pageopacity="0.0"
     inkscape:pagecheckerboard="0"
     inkscape:deskcolor="#d1d1d1"
     inkscape:document-units="pt"
     showgrid="false"
     inkscape:zoom="4.9974"
     inkscape:cx="89.946772"
     inkscape:cy="66.934806"
     inkscape:window-width="1920"
     inkscape:window-height="1027"
     inkscape:window-x="0"
     inkscape:window-y="25"
     inkscape:window-maximized="1"
     inkscape:current-layer="svg68" />
  <path
     d="M 0.71793609,153.22398 C 1.5760672,305.0213 1.8621108,307.01864 8.4411155,326.70664 36.187352,410.59463 96.54256,470.22932 178.92315,495.33865 c 23.45558,7.13333 30.03459,7.98933 71.51095,7.98933 42.6205,0.28533 47.48321,-0.28533 71.51091,-7.98933 47.19719,-14.83733 80.37825,-35.096 111.84307,-67.62402 30.60669,-32.24266 50.05764,-66.76799 61.49937,-109.56799 5.72089,-21.68534 6.29299,-30.816 7.43717,-163.496 0.8581,-77.325314 0.57205,-143.807974 -0.28609,-147.8026403 L 500.72225,0 H 250.14801 -0.140195 Z M 224.11803,64.770664 l 16.8766,4.565333 -9.7255,7.418662 c -5.14878,3.994667 -12.01383,9.986667 -14.87425,12.840004 -4.57672,4.565334 -10.01154,5.706667 -28.60438,5.706667 -18.87888,0.285333 -26.31602,1.712 -39.18799,7.704 -42.6205,19.97333 -65.217949,67.05331 -52.632034,109.568 12.871964,44.22664 47.483254,69.90664 94.108374,69.90664 16.30449,0 22.02536,1.14134 24.8858,4.85067 2.28834,2.568 8.86734,8.27466 14.58822,12.26933 l 10.86966,7.704 -12.29987,4.56533 c -42.90655,15.97867 -98.39903,3.424 -131.5801,-29.95999 C 14.448032,199.73333 69.654463,60.490664 184.35798,59.919998 c 12.87195,0 30.32065,1.997333 39.76005,4.850666 z m 127.00341,-0.570666 c 48.05533,14.266661 83.23871,54.213332 92.10605,104.717312 6.57903,37.37868 -7.1511,80.46401 -34.32523,109.28266 -8.00923,8.56 -15.73241,15.69333 -16.59052,15.69333 -1.1442,0 -4.00461,-8.55999 -6.29297,-19.11733 l -4.57669,-19.11733 9.43944,-12.55465 c 20.02304,-25.96533 23.45559,-63.91468 8.58131,-95.016 -8.58133,-18.54667 -24.31373,-33.95466 -45.48096,-44.79733 -12.87197,-6.562664 -18.30679,-7.703997 -39.188,-7.703997 -21.16721,0 -26.316,1.141333 -40.90422,8.559997 -26.02999,12.84 -43.47866,35.09599 -52.05995,66.19732 -0.5721,1.712 -5.43484,3.99466 -10.58364,5.136 -5.14877,1.14133 -13.15801,3.99466 -17.44866,6.27733 -4.57669,2.28267 -8.58129,3.70933 -9.15337,3.13867 -2.00233,-2.28267 5.14878,-36.23734 10.29757,-47.65066 14.30218,-32.24266 46.6251,-61.346656 79.52013,-71.903989 20.02304,-6.277333 57.20874,-6.848 76.65971,-1.141333 z m -52.34599,57.922662 c 19.45097,31.10132 23.45558,80.74933 9.15339,114.704 -13.73009,32.81331 -21.16723,36.80798 -40.6182,21.39998 -7.15109,-5.70665 -7.72316,-7.41865 -4.57671,-11.98398 12.58592,-17.976 17.73471,-33.95467 17.73471,-55.35467 0,-24.53868 -3.14647,-35.95201 -14.58824,-53.072 -8.86734,-13.41066 -8.29523,-14.26666 10.58364,-23.39733 12.87197,-6.27733 13.44406,-5.992 22.31141,7.704 z m -26.8881,69.62133 c 0,22.256 -1.14418,23.68267 -17.73471,22.54134 -30.60666,-1.99734 -65.79006,15.97866 -84.09684,42.79998 l -8.86734,13.12533 -11.15572,-5.42133 c -18.87888,-9.13067 -20.02306,-11.41332 -11.7278,-23.96799 16.59055,-25.67999 45.19491,-47.93599 72.36905,-56.21068 7.72317,-2.568 24.59977,-4.56533 37.75778,-4.56533 l 23.45558,-0.28533 z m 73.79929,30.816 c 21.73929,23.39733 33.18105,53.92798 32.89499,88.45331 -0.85814,102.14933 -118.13603,163.49602 -202.23286,105.85867 -32.03691,-22.256 -50.62975,-52.50133 -57.49479,-93.58933 l -2.00231,-12.26934 15.44636,6.848 c 8.29526,3.70934 17.44867,7.41867 20.3091,8.27467 2.57439,1.14133 4.86275,3.70933 4.86275,6.27733 0,7.98934 13.44406,31.38667 24.88579,43.08534 18.87889,19.40266 34.89733,25.39466 66.64816,25.39466 31.75087,0 46.3391,-5.42133 65.79006,-25.10933 31.75087,-31.672 37.47173,-82.46133 13.15803,-118.69866 l -9.43945,-13.69599 4.57669,-18.83199 c 5.14877,-20.82934 5.14877,-20.82934 22.59748,-1.99734 z m -112.70124,13.696 c 6.57902,12.55467 26.31604,30.81598 41.19029,38.23465 9.43945,4.56533 20.02306,6.848 35.46942,7.41867 24.02766,1.14133 25.17185,1.99733 25.17185,23.96799 0,9.416 -0.85814,10.55734 -8.86736,12.26934 -11.15571,2.568 -40.61821,-0.856 -53.77619,-6.27734 -22.31144,-8.84533 -28.6044,-12.55466 -42.62054,-25.10933 -12.58592,-11.128 -32.03689,-37.09331 -32.03689,-42.22931 0,-1.99734 25.4579,-15.97867 29.17646,-16.264 1.14417,0 4.00461,3.70933 6.29296,7.98933 z"
     id="path2"
     style="fill:#00a2e8;fill-opacity:1;stroke:none;stroke-width:0.285689" />
</svg>
