<?xml version="1.0" encoding="UTF-8" standalone="no"?>
<svg
   version="1.0"
   width="50"
   height="50"
   viewBox="0 0 175.98114 176.41925"
   preserveAspectRatio="xMidYMid"
   id="svg68"
   sodipodi:docname="logo.svg"
   inkscape:version="1.2.2 (b0a84865, 2022-12-01)"
   xmlns:inkscape="http://www.inkscape.org/namespaces/inkscape"
   xmlns:sodipodi="http://sodipodi.sourceforge.net/DTD/sodipodi-0.dtd"
   xmlns="http://www.w3.org/2000/svg"
   xmlns:svg="http://www.w3.org/2000/svg">
  <defs
     id="defs72" />
  <sodipodi:namedview
     id="namedview70"
     pagecolor="#ffffff"
     bordercolor="#000000"
     borderopacity="0.25"
     inkscape:showpageshadow="2"
     inkscape:pageopacity="0.0"
     inkscape:pagecheckerboard="0"
     inkscape:deskcolor="#d1d1d1"
     inkscape:document-units="pt"
     showgrid="false"
     inkscape:zoom="0.95111608"
     inkscape:cx="107.76813"
     inkscape:cy="142.46421"
     inkscape:window-width="1390"
     inkscape:window-height="1027"
     inkscape:window-x="0"
     inkscape:window-y="25"
     inkscape:window-maximized="0"
     inkscape:current-layer="svg68" />
  <path
     d="m 0.3,53.7 c 0.3,53.2 0.4,53.9 2.7,60.8 9.7,29.4 30.8,50.3 59.6,59.1 8.2,2.5 10.5,2.8 25,2.8 14.9,0.1 16.6,-0.1 25,-2.8 16.5,-5.2 28.1,-12.3 39.1,-23.7 10.7,-11.3 17.5,-23.4 21.5,-38.4 2,-7.6 2.2,-10.8 2.6,-57.3 C 176.1,27.1 176,3.8 175.7,2.4 L 175.1,0 H 87.5 0 Z m 78.1,-31 5.9,1.6 -3.4,2.6 c -1.8,1.4 -4.2,3.5 -5.2,4.5 -1.6,1.6 -3.5,2 -10,2 C 59.1,33.5 56.5,34 52,36.1 37.1,43.1 29.2,59.6 33.6,74.5 38.1,90 50.2,99 66.5,99 c 5.7,0 7.7,0.4 8.7,1.7 0.8,0.9 3.1,2.9 5.1,4.3 l 3.8,2.7 -4.3,1.6 c -15,5.6 -34.4,1.2 -46,-10.5 C 5.1,70 24.4,21.2 64.5,21 c 4.5,0 10.6,0.7 13.9,1.7 z m 44.4,-0.2 c 16.8,5 29.1,19 32.2,36.7 2.3,13.1 -2.5,28.2 -12,38.3 -2.8,3 -5.5,5.5 -5.8,5.5 -0.4,0 -1.4,-3 -2.2,-6.7 l -1.6,-6.7 3.3,-4.4 c 7,-9.1 8.2,-22.4 3,-33.3 -3,-6.5 -8.5,-11.9 -15.9,-15.7 -4.5,-2.3 -6.4,-2.7 -13.7,-2.7 -7.4,0 -9.2,0.4 -14.3,3 -9.1,4.5 -15.2,12.3 -18.2,23.2 -0.2,0.6 -1.9,1.4 -3.7,1.8 -1.8,0.4 -4.6,1.4 -6.1,2.2 -1.6,0.8 -3,1.3 -3.2,1.1 -0.7,-0.8 1.8,-12.7 3.6,-16.7 5,-11.3 16.3,-21.5 27.8,-25.2 7,-2.2 20,-2.4 26.8,-0.4 z m -18.3,20.3 c 6.8,10.9 8.2,28.3 3.2,40.2 -4.8,11.5 -7.4,12.9 -14.2,7.5 -2.5,-2 -2.7,-2.6 -1.6,-4.2 4.4,-6.3 6.2,-11.9 6.2,-19.4 0,-8.6 -1.1,-12.6 -5.1,-18.6 -3.1,-4.7 -2.9,-5 3.7,-8.2 4.5,-2.2 4.7,-2.1 7.8,2.7 z m -9.4,24.4 c 0,7.8 -0.4,8.3 -6.2,7.9 -10.7,-0.7 -23,5.6 -29.4,15 l -3.1,4.6 -3.9,-1.9 c -6.6,-3.2 -7,-4 -4.1,-8.4 5.8,-9 15.8,-16.8 25.3,-19.7 2.7,-0.9 8.6,-1.6 13.2,-1.6 L 95.1,63 Z M 120.9,78 c 7.6,8.2 11.6,18.9 11.5,31 -0.3,35.8 -41.3,57.3 -70.7,37.1 C 50.5,138.3 44,127.7 41.6,113.3 l -0.7,-4.3 5.4,2.4 c 2.9,1.3 6.1,2.6 7.1,2.9 0.9,0.4 1.7,1.3 1.7,2.2 0,2.8 4.7,11 8.7,15.1 6.6,6.8 12.2,8.9 23.3,8.9 11.1,0 16.2,-1.9 23,-8.8 11.1,-11.1 13.1,-28.9 4.6,-41.6 l -3.3,-4.8 1.6,-6.6 c 1.8,-7.3 1.8,-7.3 7.9,-0.7 z m -39.4,4.8 c 2.3,4.4 9.2,10.8 14.4,13.4 3.3,1.6 7,2.4 12.4,2.6 8.4,0.4 8.8,0.7 8.8,8.4 0,3.3 -0.3,3.7 -3.1,4.3 -3.9,0.9 -14.2,-0.3 -18.8,-2.2 -7.8,-3.1 -10,-4.4 -14.9,-8.8 -4.4,-3.9 -11.2,-13 -11.2,-14.8 0,-0.7 8.9,-5.6 10.2,-5.7 0.4,0 1.4,1.3 2.2,2.8 z"
     id="path2"
     style="fill:#00a2e8;fill-opacity:1;stroke:none;stroke-width:0.1" />
</svg>
